<svg xmlns="http://www.w3.org/2000/svg" version="1.1" xmlns:xlink="http://www.w3.org/1999/xlink" width="512" height="512" x="0" y="0" viewBox="0 0 24 24" style="enable-background:new 0 0 512 512" xml:space="preserve" fill-rule="evenodd" class="hovered-paths"><g><circle cx="12" cy="8" r="1" fill="#2c8d2d" opacity="1" data-original="#000000" class="hovered-path"></circle><path d="M12 1.25C6.067 1.25 1.25 6.067 1.25 12S6.067 22.75 12 22.75 22.75 17.933 22.75 12 17.933 1.25 12 1.25zm0 1.5c5.105 0 9.25 4.145 9.25 9.25s-4.145 9.25-9.25 9.25S2.75 17.105 2.75 12 6.895 2.75 12 2.75z" fill="#2c8d2d" opacity="1" data-original="#000000" class="hovered-path"></path><path d="M12.75 17v-6a.75.75 0 0 0-.75-.75h-1.5a.75.75 0 0 0 0 1.5h.75V17a.75.75 0 0 0 1.5 0z" fill="#2c8d2d" opacity="1" data-original="#000000" class="hovered-path"></path><path d="M13.5 16.25h-3a.75.75 0 0 0 0 1.5h3a.75.75 0 0 0 0-1.5z" fill="#2c8d2d" opacity="1" data-original="#000000" class="hovered-path"></path></g></svg>