<svg xmlns="http://www.w3.org/2000/svg" version="1.1" xmlns:xlink="http://www.w3.org/1999/xlink" width="512" height="512" x="0" y="0" viewBox="0 0 512 512" style="enable-background:new 0 0 512 512" xml:space="preserve" class=""><g><path d="M256 0C114.516 0 0 114.496 0 256c0 141.484 114.496 256 256 256 141.484 0 256-114.496 256-256C512 114.516 397.504 0 256 0zm0 472c-119.379 0-216-96.61-216-216 0-119.379 96.61-216 216-216 119.379 0 216 96.61 216 216 0 119.379-96.61 216-216 216zm59.332-98c0 11.047-8.953 20-20 20h-78.664c-11.047 0-20-8.953-20-20s8.953-20 20-20H236V236.668h-19.332c-11.047 0-20-8.953-20-20s8.953-20 20-20H256c11.047 0 20 8.953 20 20V354h19.332c11.047 0 20 8.953 20 20zM231 123.668c0-13.809 11.191-25 25-25s25 11.191 25 25c0 13.805-11.191 25-25 25s-25-11.195-25-25zm0 0" fill="#2c8d2d" opacity="1" data-original="#000000" class=""></path></g></svg>