<?xml version="1.0" encoding="UTF-8" standalone="no"?>
<svg
   version="1.1"
   width="512"
   height="512"
   x="0"
   y="0"
   viewBox="0 0 512 512"
   style="enable-background:new 0 0 512 512"
   xml:space="preserve"
   class=""
   id="svg2"
   sodipodi:docname="messages.svg"
   inkscape:version="1.4 (86a8ad7, 2024-10-11)"
   xmlns:inkscape="http://www.inkscape.org/namespaces/inkscape"
   xmlns:sodipodi="http://sodipodi.sourceforge.net/DTD/sodipodi-0.dtd"
   xmlns="http://www.w3.org/2000/svg"
   xmlns:svg="http://www.w3.org/2000/svg"><defs
     id="defs2" /><sodipodi:namedview
     id="namedview2"
     pagecolor="#ffffff"
     bordercolor="#000000"
     borderopacity="0.25"
     inkscape:showpageshadow="2"
     inkscape:pageopacity="0.0"
     inkscape:pagecheckerboard="0"
     inkscape:deskcolor="#d1d1d1"
     inkscape:zoom="1.5722656"
     inkscape:cx="255.68199"
     inkscape:cy="256"
     inkscape:window-width="1920"
     inkscape:window-height="1001"
     inkscape:window-x="-9"
     inkscape:window-y="-9"
     inkscape:window-maximized="1"
     inkscape:current-layer="svg2" /><g
     id="g2"><path
       d="M437 0H195c-41.464 0-75 34.535-75 76v45H75c-41.464 0-75 34.535-75 76v150c0 36.219 25.809 66.524 60 73.493V497a15 15 0 0 0 25.607 10.607L171.214 422H285c41.462 0 76-33.534 76-75v-24.068l65.452 64.733A15 15 0 0 0 452 377v-76.507c34.19-6.969 60-37.275 60-73.493V76c0-41.465-33.536-76-75-76zM331 347c0 24.393-21.065 45-46 45H165c-3.978 0-7.793 1.58-10.606 4.393L90 460.787V407c0-8.284-6.716-15-15-15-24.813 0-45-20.187-45-45V197c0-24.935 20.607-46 45-46h210c24.935 0 46 21.065 46 46v150zm151-120c0 24.813-20.187 45-45 45-8.284 0-15 6.716-15 15v54.068l-61-60.33V197c0-41.485-34.544-76-76-76H150V76c0-24.935 20.607-46 45-46h242c24.393 0 45 21.065 45 46v151z"
       fill="#2c8d2c"
       opacity="1"
       data-original="#000000"
       class=""
       id="path1" /></g></svg>
