<?xml version="1.0" encoding="UTF-8" standalone="no"?>
<svg
   version="1.1"
   width="512"
   height="512"
   x="0"
   y="0"
   viewBox="0 0 512 512"
   style="enable-background:new 0 0 512 512"
   xml:space="preserve"
   class=""
   id="svg2"
   sodipodi:docname="messages.svg"
   inkscape:version="1.4 (86a8ad7, 2024-10-11)"
   xmlns:inkscape="http://www.inkscape.org/namespaces/inkscape"
   xmlns:sodipodi="http://sodipodi.sourceforge.net/DTD/sodipodi-0.dtd"
   xmlns="http://www.w3.org/2000/svg"
   xmlns:svg="http://www.w3.org/2000/svg"><defs
     id="defs2" /><sodipodi:namedview
     id="namedview2"
     pagecolor="#ffffff"
     bordercolor="#000000"
     borderopacity="0.25"
     inkscape:showpageshadow="2"
     inkscape:pageopacity="0.0"
     inkscape:pagecheckerboard="0"
     inkscape:deskcolor="#d1d1d1"
     inkscape:zoom="0.7861328"
     inkscape:cx="254.40994"
     inkscape:cy="145.64969"
     inkscape:window-width="1920"
     inkscape:window-height="1001"
     inkscape:window-x="-9"
     inkscape:window-y="-9"
     inkscape:window-maximized="1"
     inkscape:current-layer="g2" /><g
     id="g2"><path
       d="M 437,43.24969 166.37888,42.931678 c -41.46397,-0.04872 -74.999998,34.535 -74.999998,76.000002 v 0.47826 L 75,119.72795 C 33.543813,120.53286 0,155.535 0,197 v 153.37303 c 0,45.38131 36.571429,68.87519 109.60994,71.39202 v 76.507 c -7.1e-4,13.36423 16.15742,20.05729 25.607,10.607 l 85.607,-85.607 142.43038,-0.37258 c 41.46186,-0.10846 67.00525,-66.23943 67.00525,-66.23943 v 0 L 452,345.01474 c 36.09807,-19.37148 60,-38.54705 60,-74.76505 v -151 c 0,-41.465 -33.53603,-75.951275 -75,-76 z M 400.25957,336.2063 c 0,24.393 -12.07047,56.58544 -37.00525,56.69317 l -152.99334,0.66101 c -3.97799,0.01 -70.65104,68.49857 -70.65104,68.49857 l 2.35551,-68.93254 C 115.53775,392.37258 30,393.63388 30,347 V 197 c 0,-24.935 20.607692,-47.45581 45,-47.27205 l 288.25432,2.17152 c 24.93429,0.18784 37.00525,9.37183 37.00525,34.30683 z M 482,270.24969 c 0,24.813 -21.94924,37.08797 -45,46.27205 -3.99083,1.59006 -6.74043,-2.0557 -6.74043,-2.0557 v 0 -128.25974 c 0,-41.485 -25.54962,-64.13197 -67.00525,-64.30683 l -241.87544,-2.48953 v -0.47826 c 0,-24.935002 20.60702,-46.028667 45,-46.000002 L 437,73.24969 c 24.39298,0.02866 45,21.065 45,46 z"
       fill="#2c8d2c"
       opacity="1"
       data-original="#000000"
       class=""
       id="path1"
       sodipodi:nodetypes="ssscsssccccssccssssscccssssssssscsscsssss" /></g></svg>
