<?xml version="1.0" encoding="UTF-8" standalone="no"?>
<svg
   version="1.1"
   width="512"
   height="512"
   x="0"
   y="0"
   viewBox="0 0 42333.32 42333.32"
   style="enable-background:new 0 0 512 512"
   xml:space="preserve"
   fill-rule="evenodd"
   class=""
   id="svg1"
   sodipodi:docname="star.svg"
   inkscape:version="1.4 (86a8ad7, 2024-10-11)"
   xmlns:inkscape="http://www.inkscape.org/namespaces/inkscape"
   xmlns:sodipodi="http://sodipodi.sourceforge.net/DTD/sodipodi-0.dtd"
   xmlns="http://www.w3.org/2000/svg"
   xmlns:svg="http://www.w3.org/2000/svg"><defs
     id="defs1" /><sodipodi:namedview
     id="namedview1"
     pagecolor="#ffffff"
     bordercolor="#000000"
     borderopacity="0.25"
     inkscape:showpageshadow="2"
     inkscape:pageopacity="0.0"
     inkscape:pagecheckerboard="0"
     inkscape:deskcolor="#d1d1d1"
     inkscape:zoom="1.5722656"
     inkscape:cx="255.68199"
     inkscape:cy="306.88199"
     inkscape:window-width="1920"
     inkscape:window-height="1001"
     inkscape:window-x="-9"
     inkscape:window-y="-9"
     inkscape:window-maximized="1"
     inkscape:current-layer="svg1" /><g
     id="g1"
     style="fill:none;stroke:#298d30;stroke-width:2107.34278857;stroke-dasharray:none;stroke-opacity:1"
     transform="matrix(1.0386796,0,0,1.0804391,-1594.9402,-1719.7234)"><path
       fill="#aa6829"
       fill-rule="nonzero"
       d="m 21716.183,29901.36 -11235.659,7040.2 c -275.371,172.5 -630.6251,-69.89 -540.7425,-368.69 L 13600.474,24366.5 c 39.208,-130.43 -9.157,-269.66 -122.087,-353.53 L 2873.2265,16157.89 c -259.773,-192.41 -124.1375,-584.51 206.4762,-596.88 l 13498.5723,-503.43 c 143.929,-5.75 270.033,-91.5 320.063,-218.34 L 21579.809,2943.87 c 114.637,-291.45 553.905,-291.45 668.532,0 l 4681.471,11895.37 c 50.113,126.84 176.228,212.59 320.063,218.34 l 13498.291,503.43 c 330.614,12.37 466.25,404.47 206.758,596.88 l -10605.067,7855.08 c -113.316,83.87 -161.379,223.1 -122.181,353.53 l 3660.693,12206.37 c 89.882,298.8 -265.372,541.19 -540.357,368.69 l -11236.045,-7040.2 c -119.851,-74.99 -275.933,-74.99 -395.784,0 z M 34310.55,7493.6 c 599.627,576.27 -904.205,2021.5 -904.205,2021.5 l -1503.552,1444.96 c 0,0 -1503.551,1445.23 -2103.553,868.7 -599.626,-575.99 903.925,-2020.96 903.925,-2020.96 l 1503.833,-1445.23 c 0,0 1503.551,-1444.96 2103.552,-868.97 z M 21914.075,33476.98 c -848.203,0 -848.203,2043.74 -848.203,2043.74 v 2043.65 c 0,0 0,2043.65 848.203,2043.65 847.912,0 847.912,-2043.65 847.912,-2043.65 v -2043.65 c 0,0 0,-2043.74 -847.912,-2043.74 z M 9517.5996,7493.6 c -599.6267,576.27 904.2894,2021.5 904.2894,2021.5 l 1503.562,1444.96 c 0,0 1503.458,1445.23 2103.469,868.7 599.617,-575.99 -904.206,-2020.96 -904.206,-2020.96 L 11621.152,8362.57 c 0,0 -1503.832,-1444.96 -2103.5524,-868.97 z M 34444.584,25642.11 c -298.7,763.03 1692.192,1481.37 1692.192,1481.37 l 1990.893,718.72 c 0,0 1990.893,718.36 2288.843,-44.67 298.419,-762.94 -1692.484,-1481.3 -1692.484,-1481.3 l -1990.882,-718.71 c 0,0 -1990.612,-718.35 -2288.562,44.59 z m -25060.6533,0 c 298.0444,763.03 -1692.5673,1481.37 -1692.5673,1481.37 l -1990.8926,718.72 c 0,0 -1990.799,718.36 -2288.8435,-44.67 -298.3149,-762.94 1692.5777,-1481.3 1692.5777,-1481.3 l 1990.8927,-718.71 c 0,0 1990.518,-718.35 2288.833,44.59 z"
       opacity="1"
       data-original="#aa6829"
       class=""
       id="path1"
       style="fill:none;stroke:#298d30;stroke-width:2107.34278857;stroke-dasharray:none;stroke-opacity:1" /></g></svg>
