<?xml version="1.0" encoding="UTF-8" standalone="no"?>
<svg
   version="1.1"
   width="512"
   height="512"
   x="0"
   y="0"
   viewBox="0 0 42333.32 42333.32"
   style="enable-background:new 0 0 512 512"
   xml:space="preserve"
   fill-rule="evenodd"
   class=""
   id="svg1"
   sodipodi:docname="star.svg"
   inkscape:version="1.4 (86a8ad7, 2024-10-11)"
   xmlns:inkscape="http://www.inkscape.org/namespaces/inkscape"
   xmlns:sodipodi="http://sodipodi.sourceforge.net/DTD/sodipodi-0.dtd"
   xmlns="http://www.w3.org/2000/svg"
   xmlns:svg="http://www.w3.org/2000/svg"><defs
     id="defs1"><inkscape:path-effect
       effect="fillet_chamfer"
       id="path-effect2"
       is_visible="true"
       lpeversion="1"
       nodesatellites_param="F,0,0,1,0,0,0,1 @ F,0,0,1,0,0,0,1 @ F,0,0,1,0,0,0,1 @ F,0,0,1,0,0,0,1 @ F,0,0,1,0,0,0,1 @ F,0,0,1,0,0,0,1 @ F,0,0,1,0,0,0,1 @ F,0,0,1,0,0,0,1 @ F,0,0,1,0,0,0,1 @ F,0,0,1,0,0,0,1 @ F,0,0,1,0,0,0,1 @ F,0,0,1,0,0,0,1 @ F,0,0,1,0,0,0,1 @ F,0,0,1,0,0,0,1 @ F,0,0,1,0,0,0,1 @ F,0,0,1,0,0,0,1 @ F,0,0,1,0,0,0,1 @ F,0,0,1,0,0,0,1 @ F,0,0,1,0,0,0,1 @ F,0,0,1,0,0,0,1 @ F,0,0,1,0,0,0,1 @ F,0,0,1,0,0,0,1 @ F,0,0,1,0,0,0,1 @ F,0,0,1,0,0,0,1 @ F,0,0,1,0,0,0,1 @ F,0,0,1,0,0,0,1 @ F,0,0,1,0,0,0,1 @ F,0,0,1,0,0,0,1 @ F,0,0,1,0,0,0,1 | F,0,0,1,0,0,0,1 @ F,0,0,1,0,0,0,1 @ F,0,0,1,0,0,0,1 @ F,0,0,1,0,0,0,1 | F,0,0,1,0,0,0,1 @ F,0,0,1,0,0,0,1 @ F,0,0,1,0,0,0,1 | F,0,0,1,0,0,0,1 @ F,0,0,1,0,0,0,1 @ F,0,0,1,0,0,0,1 @ F,0,0,1,0,0,0,1 @ F,0,0,1,0,0,0,1 @ F,0,0,1,0,0,0,1 @ F,0,0,1,0,0,0,1 @ F,0,0,1,0,0,0,1 @ F,0,0,1,0,0,0,1 @ F,0,0,1,0,0,0,1 @ F,0,0,1,0,0,0,1 @ F,0,0,1,0,0,0,1 @ F,0,0,1,0,0,0,1 @ F,0,0,1,0,0,0,1 @ F,0,0,1,0,0,0,1 @ F,0,0,1,0,0,0,1 @ F,0,0,1,0,0,0,1 @ F,0,0,1,0,0,0,1 @ F,0,0,1,0,0,0,1 @ F,0,0,1,0,0,0,1 @ F,0,0,1,0,0,0,1 @ F,0,0,1,0,0,0,1 @ F,0,0,1,0,0,0,1 @ F,0,0,1,0,0,0,1 | F,0,0,1,0,0,0,1 @ F,0,0,1,0,0,0,1 @ F,0,0,1,0,0,0,1 @ F,0,0,1,0,0,0,1"
       radius="0"
       unit="px"
       method="auto"
       mode="F"
       chamfer_steps="1"
       flexible="false"
       use_knot_distance="true"
       apply_no_radius="true"
       apply_with_radius="true"
       only_selected="false"
       hide_knots="false" /></defs><sodipodi:namedview
     id="namedview1"
     pagecolor="#ffffff"
     bordercolor="#000000"
     borderopacity="0.25"
     inkscape:showpageshadow="2"
     inkscape:pageopacity="0.0"
     inkscape:pagecheckerboard="0"
     inkscape:deskcolor="#d1d1d1"
     inkscape:zoom="0.55587983"
     inkscape:cx="23.386349"
     inkscape:cy="134.02177"
     inkscape:window-width="1920"
     inkscape:window-height="1001"
     inkscape:window-x="-9"
     inkscape:window-y="-9"
     inkscape:window-maximized="1"
     inkscape:current-layer="svg1" /><g
     id="g1"
     style="fill:none;stroke:#298d30;stroke-width:2107.34;stroke-dasharray:none;stroke-opacity:1"
     transform="matrix(0.98443442,0,0,1.0295773,-171.38109,-3606.6498)"><path
       style="fill:#298d30;stroke:#298d30;stroke-width:833.625;stroke-linecap:round;stroke-linejoin:round;stroke-dasharray:none;stroke-opacity:1"
       d="m 21996.869,1561.6445 c -328.417,-4.8256 -685.647,111.5446 -896.301,280.8653 -280.871,225.7609 -407.342,463.8133 -517.64,710.8281 l -15.676,35.1035 -4516.543,12388.1836 -12976.5879,522.418 h -0.07 c -624.0202,25.204 -1154.3547,489.256 -1320.2617,1006.971 -165.9071,517.714 -8.7021,1193.329 476.0605,1580.914 L 12436.109,26247.223 8911.8223,38932.51 c -165.2684,593.062 95.9245,1236.71 537.8222,1562.037 441.8978,325.327 1151.4865,381.454 1666.1795,33.418 l 0.06,-0.04 10798.201,-7303.711 10798.039,7303.349 c 514.785,348.588 1224.844,292.223 1666.613,-33.15 441.77,-325.373 702.862,-968.837 537.596,-1561.9 L 31392.06,26247.28 l 10206.47,-8160.533 0.223,-0.178 c 484.636,-387.902 641.257,-1063.313 475.285,-1580.804 -165.972,-517.492 -696.197,-981.517 -1320.217,-1006.721 h -0.07 L 27777.444,14976.626 23274.148,2624.7764 v -0.016 c -115.485,-316.9712 -192.376,-766.8193 -964.953,-1015.3633 -96.574,-31.0685 -202.845,-46.1434 -312.317,-47.752 z m -775.695,1811.127 0.04,0.1074 51.814,142.1191 c -97.554,-84.1794 -51.166,-140.3416 -51.853,-142.2265 z m 1373.693,43.6152 c 0.869,0.3492 -1.943,6.4444 -10.209,17.5977 l 3.213,-8.8086 c 3.714,-6.0841 6.354,-9.0475 6.996,-8.7891 z m -680.793,1856.9063 3979.328,10914.68 0.237,0.642 c 198.727,542.968 714.784,926.011 1298.24,951.192 l 1.58,0.07 11510.83,463.416 -9053.582,7238.746 -0.03,0.03 c -456.005,364.352 -647.305,971.032 -492.438,1527.332 v 0.03 l 3118.889,11226.094 -9553.797,-6461.795 -0.295,-0.2 c -484.182,-327.02 -1133.746,-327.02 -1617.928,0 l -0.302,0.204 -9553.866,6462.064 3118.946,-11226.299 c 155.32,-557.743 -36.626,-1162.107 -490.936,-1526.32 l -0.557,-0.447 -9054.5308,-7239.442 11510.8108,-463.408 1.564,-0.07 c 583.286,-25.158 1099.912,-408.338 1298.471,-951.739 l 0.135,-0.369 z M 40665.57,17682.252 h 0.211 -0.14 -0.07 z"
       id="path1"
       inkscape:path-effect="#path-effect2"
       inkscape:original-d="m 21996.869,1561.6445 c -328.417,-4.8256 -685.647,111.5446 -896.301,280.8653 -280.871,225.7609 -407.342,463.8133 -517.64,710.8281 l -15.676,35.1035 -4516.543,12388.1836 -12976.5879,522.418 h -0.07 c -624.0202,25.204 -1154.3547,489.256 -1320.2617,1006.971 -165.9071,517.714 -8.7021,1193.329 476.0605,1580.914 L 12436.109,26247.223 8911.8223,38932.51 c -165.2684,593.062 95.9245,1236.71 537.8222,1562.037 441.8978,325.327 1151.4865,381.454 1666.1795,33.418 l 0.06,-0.04 10798.201,-7303.711 10798.039,7303.349 c 514.785,348.588 1224.844,292.223 1666.613,-33.15 441.77,-325.373 702.862,-968.837 537.596,-1561.9 L 31392.06,26247.28 l 10206.47,-8160.533 0.223,-0.178 c 484.636,-387.902 641.257,-1063.313 475.285,-1580.804 -165.972,-517.492 -696.197,-981.517 -1320.217,-1006.721 h -0.07 L 27777.444,14976.626 23274.148,2624.7764 v -0.016 c -115.485,-316.9712 -192.376,-766.8193 -964.953,-1015.3633 -96.574,-31.0685 -202.845,-46.1434 -312.317,-47.752 z m -775.695,1811.127 0.04,0.1074 51.814,142.1191 c -97.554,-84.1794 -51.166,-140.3416 -51.853,-142.2265 z m 1373.693,43.6152 c 0.869,0.3492 -1.943,6.4444 -10.209,17.5977 l 3.213,-8.8086 c 3.714,-6.0841 6.354,-9.0475 6.996,-8.7891 z m -680.793,1856.9063 3979.328,10914.68 0.237,0.642 c 198.727,542.968 714.784,926.011 1298.24,951.192 l 1.58,0.07 11510.83,463.416 -9053.582,7238.746 c -0.01,0.01 -0.02,0.02 -0.03,0.03 -456.005,364.352 -647.305,971.032 -492.438,1527.332 0,0 0,0.02 0,0.03 l 3118.889,11226.094 -9553.797,-6461.795 -0.295,-0.2 c -484.182,-327.02 -1133.746,-327.02 -1617.928,0 l -0.302,0.204 -9553.866,6462.064 3118.946,-11226.299 c 155.32,-557.743 -36.626,-1162.107 -490.936,-1526.32 l -0.557,-0.447 -9054.5308,-7239.442 11510.8108,-463.408 1.564,-0.07 c 583.286,-25.158 1099.912,-408.338 1298.471,-951.739 l 0.135,-0.369 z M 40665.57,17682.252 h 0.211 -0.14 c -0.02,0 -0.05,0 -0.07,0 z"
       transform="matrix(0.9096493,0,0,0.9096493,2123.4215,2461.813)" /></g><rect
     style="fill:#298d30;fill-opacity:1;stroke-width:1402.42;stroke-miterlimit:500.6;stroke-dashoffset:13.2284;paint-order:markers fill stroke"
     id="rect1-2"
     width="3294.0913"
     height="5714.4556"
     x="20713.066"
     y="-40831.836"
     ry="2565.6743"
     transform="matrix(0.99768902,0.06794564,0.03152792,-0.99950287,0,0)" /><rect
     style="fill:#298d30;fill-opacity:1;stroke-width:1403.09;stroke-miterlimit:500.6;stroke-dashoffset:13.2284;paint-order:markers fill stroke"
     id="rect1-2-1"
     width="3251.3789"
     height="5795.0674"
     x="-3161.4856"
     y="-51100.207"
     ry="2601.8672"
     transform="matrix(0.58630843,-0.81008791,-0.84214101,-0.53925738,0,0)" /><rect
     style="fill:#298d30;fill-opacity:1;stroke-width:1403.09;stroke-miterlimit:500.6;stroke-dashoffset:13.2284;paint-order:markers fill stroke"
     id="rect1-2-1-1"
     width="3251.3789"
     height="5795.0674"
     x="-25840.234"
     y="-16620.732"
     ry="2601.8672"
     transform="matrix(-0.58630843,-0.81008791,0.84214101,-0.53925738,0,0)" /><rect
     style="fill:#298d30;fill-opacity:1;stroke-width:1402.08;stroke-miterlimit:500.6;stroke-dashoffset:13.2284;paint-order:markers fill stroke"
     id="rect1-2-11"
     width="3262.3811"
     height="5767.1592"
     x="26564.045"
     y="16621.424"
     ry="2589.3374"
     transform="matrix(0.71697842,0.69709536,0.68365229,-0.72980788,0,0)" /><rect
     style="fill:#298d30;fill-opacity:1;stroke-width:1403.14;stroke-miterlimit:500.6;stroke-dashoffset:13.2284;paint-order:markers fill stroke"
     id="rect1-2-2"
     width="3266.3596"
     height="5768.9194"
     x="812.0918"
     y="-12398.632"
     ry="2590.1274"
     transform="matrix(0.75843041,-0.65175403,-0.69479035,-0.71921232,0,0)" /></svg>
