<svg xmlns="http://www.w3.org/2000/svg" version="1.1" xmlns:xlink="http://www.w3.org/1999/xlink" width="512" height="512" x="0" y="0" viewBox="0 0 24 24" style="enable-background:new 0 0 512 512" xml:space="preserve" class=""><g transform="matrix(6.123233995736766e-17,-1,1,6.123233995736766e-17,-0.0006818771362304688,23.99931812286377)"><symbol id="c" viewBox="0 -48 48 48"><g clip-path="url(#a)"><g fill="none" stroke="#000" stroke-miterlimit="10" stroke-width=".25"><path d="M2-48V0M4-48V0M6-48V0M8-48V0M10-48V0M12-48V0M14-48V0M16-48V0M18-48V0M20-48V0M22-48V0M24-48V0M26-48V0M28-48V0M30-48V0M32-48V0M34-48V0M36-48V0M38-48V0M40-48V0M42-48V0M44-48V0M46-48V0" fill="" opacity="1"></path></g><g fill="none" stroke="#000" stroke-miterlimit="10" stroke-width=".25"><path d="M0-2h48M0-4h48M0-6h48M0-8h48M0-10h48M0-12h48M0-14h48M0-16h48M0-18h48M0-20h48M0-22h48M0-24h48M0-26h48M0-28h48M0-30h48M0-32h48M0-34h48M0-36h48M0-38h48M0-40h48M0-42h48M0-44h48M0-46h48" fill="" opacity="1"></path></g><path d="M47.75-.25v-47.5H.25v47.5zM48 0H0v-48h48z" fill="#000000" opacity="1" data-original="#000000"></path></g></symbol><clipPath id="a"><path d="M0-48h48V0H0z" fill="#000000" opacity="1" data-original="#000000"></path></clipPath><symbol id="d" viewBox="0 -48 48 48"><g opacity=".4"><g clip-path="url(#b)"><path d="M47.75-.25v-47.5H.25v47.5zM48 0H0v-48h48z" fill="#000000" opacity="1" data-original="#000000"></path></g></g></symbol><clipPath id="b"><path d="M0-48h48V0H0z" fill="#000000" opacity="1" data-original="#000000"></path></clipPath><path d="M19.116 12h-.998c0-3.892-3.167-7.059-7.06-7.059S4 8.108 4 12s3.167 7.059 7.059 7.059a.882.882 0 1 0 0-1.765c-2.92 0-5.294-2.375-5.294-5.294s2.374-5.294 5.294-5.294S16.353 9.08 16.353 12h-.998a.882.882 0 0 0-.735 1.372l1.881 2.82a.882.882 0 0 0 1.469 0l1.88-2.82A.882.882 0 0 0 19.116 12z" fill="#000000" opacity="1" data-original="#000000"></path></g></svg>